<svg viewBox="0 0 1227 140" xmlns="http://www.w3.org/2000/svg" xml:space="preserve" style="fill-rule:evenodd;clip-rule:evenodd;stroke-linejoin:round;stroke-miterlimit:2"><path d="M166.338 284.875c-.285 0-.508-.292-.671-.875l-3.412-11.125a4.052 4.052 0 0 1-.183-1.125c0-.5.142-.958.426-1.375 1.179-1.417 2.357-3.125 3.535-5.125s2.234-4.083 3.169-6.25v-27.5h-5.18c-.569 0-.853-.583-.853-1.75v-11.5c0-1.167.284-1.75.853-1.75h11.212c.569 0 .854.583.854 1.75v27.875c1.137-5.25 1.939-11.75 2.407-19.5.467-7.75.7-16 .7-24.75v-24c0-1.167.285-1.75.853-1.75h15.844c.569 0 .853.583.853 1.75v34.5c0 1.167-.284 1.75-.853 1.75h-10.847l-.243 6.625h11.395c.569 0 .853.583.853 1.75V261c0 1.167-.284 1.75-.853 1.75h-11.639c-.569 0-.853-.583-.853-1.75v-24.375c-.691 7.167-1.625 13.583-2.803 19.25-.122.667-.325 1-.61 1-.203 0-.386-.167-.548-.5l-3.656-5.75v5.125c.853 3.917 2.214 6.917 4.082 9 1.869 2.083 4.205 3.417 7.008 4 1.26.25 2.732.438 4.418.563 1.686.125 3.545.187 5.576.187 3.169 0 6.581-.167 10.237-.5a68.636 68.636 0 0 0 10.847-1.875h.183c.609 0 .813.625.609 1.875l-1.889 12.25c-.121.917-.487 1.417-1.096 1.5-2.56.667-5.485 1.125-8.775 1.375-3.291.25-6.5.375-9.629.375-2.153 0-4.143-.062-5.971-.187-1.829-.125-3.393-.313-4.693-.563a18.144 18.144 0 0 1-7.678-3.312c-2.315-1.709-4.326-4.563-6.033-8.563a188.226 188.226 0 0 1-3.046 6.688c-1.097 2.291-2.215 4.27-3.352 5.937-.163.25-.345.375-.548.375Zm25.715-34.25v-18.25h-3.291v18.25h3.291Zm-20.901-45.75c-.285 0-.508-.333-.671-1-.812-3.5-1.777-7.021-2.894-10.562-1.117-3.542-2.326-6.605-3.626-9.188-.203-.417-.305-.792-.305-1.125 0-.5.142-.917.427-1.25l4.631-6.5c.163-.333.366-.5.609-.5.122 0 .325.208.61.625 1.3 2.417 2.6 5.375 3.9 8.875 1.3 3.5 2.397 7 3.29 10.5.082.5.122.833.122 1 0 .5-.142.958-.426 1.375L171.7 204.5c-.162.25-.345.375-.548.375Zm19.561-2.75V188.25h-5.363v13.875h5.363Zm14.381 61.75c-.569 0-.853-.583-.853-1.75V246h-4.875c-.569 0-.854-.583-.854-1.75v-9.75c0-1.167.285-1.75.854-1.75h4.875v-10.875h-5.607c-.568 0-.853-.583-.853-1.75V211c0-1.167.285-1.75.853-1.75h2.133a287.947 287.947 0 0 0-.487-7.937 299.503 299.503 0 0 0-.671-7.688h-.792c-.569 0-.853-.583-.853-1.75V182.5c0-1.167.284-1.75.853-1.75h5.119v-6.875c0-1.167.284-1.75.853-1.75h5.18c.569 0 .853.583.853 1.75v6.875h5.18c.568 0 .853.583.853 1.75v9.375c0 1.167-.285 1.75-.853 1.75h-.488a210.486 210.486 0 0 1-.518 8 445.968 445.968 0 0 1-.701 7.625h2.56c.568 0 .853.583.853 1.75v9.125c0 1.167-.285 1.75-.853 1.75h-5.911v10.875h5.24c.569 0 .854.583.854 1.75v9.75c0 1.167-.285 1.75-.854 1.75h-5.24v16.125c0 1.167-.285 1.75-.853 1.75h-4.997Zm3.534-54.625c.244-2.583.467-5.187.67-7.812.204-2.625.346-5.23.427-7.813h-4.388c.244 2.583.468 5.208.671 7.875s.345 5.25.426 7.75h2.194ZM226.117 286.375c-.406 0-.67-.417-.792-1.25l-2.377-11.375c-.081-.333-.121-.583-.121-.75 0-.75.243-1.208.731-1.375 4.712-1.5 7.922-4.625 9.628-9.375h-8.409c-.569 0-.854-.583-.854-1.75V252c0-1.167.285-1.75.854-1.75h9.689c.081-.667.132-1.354.152-2.062.02-.709.051-1.438.091-2.188h-8.714c-.568 0-.853-.583-.853-1.75v-8.125c0-1.167.285-1.75.853-1.75h8.836V230h-8.836c-.568 0-.853-.583-.853-1.75v-24.875c0-1.167.285-1.75.853-1.75h24.375c.569 0 .853.583.853 1.75v4.875c1.707-4.833 3.129-10.292 4.266-16.375a202.136 202.136 0 0 0 2.559-18.125c.122-1.167.447-1.625.975-1.375l5.18 1.875c.61.25.833.917.67 2-.325 2.417-.71 4.958-1.157 7.625a276.71 276.71 0 0 1-1.463 8h3.839a97.945 97.945 0 0 0 1.798-8.625 226.59 226.59 0 0 0 1.249-8.5c.122-1.083.447-1.5.975-1.25l5.241 1.875c.609.25.812.958.609 2.125a150.195 150.195 0 0 1-1.341 7.313 140.291 140.291 0 0 1-1.645 7.062h5.241c.569 0 .853.583.853 1.75v10.25c0 1.167-.284 1.75-.853 1.75h-5.302v12.25h4.266c.569 0 .853.583.853 1.75v9.75c0 1.167-.284 1.75-.853 1.75h-4.266v12h4.266c.569 0 .853.583.853 1.75v9.625c0 1.167-.284 1.75-.853 1.75h-4.266v13.875h5.85c.569 0 .853.583.853 1.75v10.5c0 1.167-.284 1.75-.853 1.75h-23.4c-.569 0-.853-.583-.853-1.75V221.5c-.041.167-.071.25-.091.25-.021 0-.051.083-.092.25-.203.583-.426.875-.67.875-.163 0-.345-.208-.548-.625l-1.89-4.5v10.5c0 1.167-.284 1.75-.853 1.75l-8.653-.125v4.5h8.775c.569 0 .853.583.853 1.75v8.125c0 1.167-.284 1.75-.853 1.75h-8.897l-.182 4.25h10.298c.569 0 .853.583.853 1.75v8.5c0 1.167-.284 1.75-.853 1.75h-8.592c.934 2.167 2.194 4 3.778 5.5a20.902 20.902 0 0 0 5.18 3.625c.69.25.893 1 .609 2.25l-2.438 11.125c-.284 1.083-.65 1.458-1.096 1.125-2.275-1.417-4.337-3.583-6.186-6.5-1.848-2.917-3.402-6.25-4.661-10-1.138 4.083-2.692 7.583-4.662 10.5-1.97 2.917-4.377 5.042-7.221 6.375-.081 0-.132.021-.152.063-.021.041-.072.062-.153.062Zm8.897-66.75V211.5h-4.083v8.125h4.083Zm31.139 50.5V256.25h-4.57v13.875h4.57Zm-20.658-50.5V211.5h-4.022v8.125h4.022Zm-15.356-19.875c-.569 0-.853-.583-.853-1.75v-4.875h-4.753c-.569 0-.853-.583-.853-1.75V182.5c0-1.167.284-1.75.853-1.75h4.753v-6.625c0-1.167.284-1.75.853-1.75h4.997c.569 0 .853.583.853 1.75v6.625h4.936v-6.625c0-1.167.284-1.75.853-1.75h4.875c.569 0 .853.583.853 1.75v6.625h4.388c.569 0 .853.583.853 1.75v8.875c0 1.167-.284 1.75-.853 1.75h-4.388V198c0 1.167-.284 1.75-.853 1.75h-4.875c-.569 0-.853-.583-.853-1.75v-4.875h-4.936V198c0 1.167-.284 1.75-.853 1.75h-4.997Zm36.014 43.375v-12h-4.57v12h4.57Zm0-25.125v-12.375h-4.57V218h4.57ZM328.127 286.25c-.569 0-.854-.583-.854-1.75v-60h-6.154a451.025 451.025 0 0 1-.396 15.5 323.421 323.421 0 0 1-1.036 15.563 217.809 217.809 0 0 1-1.859 14.875c-.772 4.791-1.747 9.229-2.925 13.312-.244.917-.63 1.167-1.158.75l-6.337-4.625c-.366-.25-.549-.667-.549-1.25 0-.333.082-.667.244-1 1.341-4 2.438-8.292 3.291-12.875.853-4.583 1.523-9.5 2.011-14.75.487-5.25.812-10.833.975-16.75.162-5.917.243-12.208.243-18.875V198.25c0-5.917-.02-11.625-.06-17.125 0-1.167.264-1.792.792-1.875a66.666 66.666 0 0 0 5.484-.5 53.84 53.84 0 0 0 5.698-1.062 52.307 52.307 0 0 0 5.576-1.688 25.045 25.045 0 0 0 5.057-2.5l.366-.125c.366 0 .609.458.731 1.375l1.646 12 .06.625c0 .75-.223 1.25-.67 1.5a34.897 34.897 0 0 1-3.9 1.625c-1.422.5-2.884.917-4.387 1.25a83.568 83.568 0 0 1-4.54.875c-1.524.25-2.996.458-4.418.625l.061 16.375H339.4c.569 0 .853.583.853 1.75v11.375c0 1.167-.284 1.75-.853 1.75h-4.753v60c0 1.167-.284 1.75-.853 1.75h-5.667Zm-43.388-5.5c-.528-.333-.691-1.083-.487-2.25 1.34-7.333 2.193-15.604 2.559-24.812.366-9.209.548-19.48.548-30.813V202c0-1.167.285-1.75.854-1.75h21.206c.569 0 .853.583.853 1.75v41.375c0 1.167-.284 1.75-.853 1.75h-14.625a354.432 354.432 0 0 1-.853 20.25c-.244 3.417-.539 6.75-.884 10s-.741 6.25-1.188 9c-.163 1.083-.528 1.417-1.097 1l-6.033-4.625ZM303.02 231v-17h-8.348v17h8.348Zm-16.94-40c-.569 0-.853-.583-.853-1.75v-11c0-1.167.284-1.75.853-1.75h24.74c.569 0 .853.583.853 1.75v11c0 1.167-.284 1.75-.853 1.75h-24.74ZM362.556 282.125c-.406 0-.69-.333-.853-1l-3.839-13.25c-.122-.417-.183-.75-.183-1 0-.75.244-1.125.731-1.125 4.957-.833 9.243-2.667 12.858-5.5 3.616-2.833 6.602-6.562 8.958-11.187 2.356-4.625 4.113-10.125 5.271-16.5 1.158-6.375 1.757-13.563 1.798-21.563H360.18v25.125c0 1.167-.285 1.75-.853 1.75l-6.643.125c-.568 0-.853-.583-.853-1.75v-39.125c0-1.167.285-1.75.853-1.75h16.393V177.75c0-1.167.284-1.75.853-1.75h7.19c.569 0 .853.583.853 1.75v17.625h17.489c.569 0 .854.583.854 1.75v4c0 11.833-.65 22.458-1.95 31.875-1.3 9.417-3.311 17.521-6.033 24.313-2.722 6.791-6.206 12.27-10.451 16.437-4.245 4.167-9.293 6.958-15.143 8.375h-.183ZM411.794 275.875c-.569 0-.853-.583-.853-1.75v-11.5c0-1.167.284-1.75.853-1.75h16.331v-42.75h-14.564c-.569 0-.853-.583-.853-1.75V205c0-1.167.284-1.75.853-1.75h37.111c.569 0 .853.583.853 1.75v11.375c0 1.167-.284 1.75-.853 1.75h-14.381v42.75h16.575c.568 0 .853.583.853 1.75v11.5c0 1.167-.285 1.75-.853 1.75h-41.072ZM477.911 282.125c-.366 0-.65-.375-.853-1.125l-3.535-13.625c-.081-.5-.121-.792-.121-.875 0-.833.243-1.292.731-1.375 5.769-2 10.583-5.104 14.442-9.312 3.859-4.209 6.998-9.021 9.415-14.438 2.417-5.417 4.245-11.208 5.484-17.375a157.183 157.183 0 0 0 2.59-18.25c-2.803.083-5.738.167-8.805.25a686.88 686.88 0 0 1-9.232.188c-3.088.041-6.115.104-9.08.187a299.52 299.52 0 0 1-8.349.125c-.528 0-.792-.583-.792-1.75v-13.375c0-1.167.285-1.75.853-1.75l38.208-.125a134.518 134.518 0 0 0-1.615-6.437 84.751 84.751 0 0 0-1.919-6.063 2.525 2.525 0 0 1-.244-1.125c0-.583.183-1 .548-1.25l3.291-2.375c.163-.167.305-.25.427-.25.243 0 .487.25.731.75a84.866 84.866 0 0 1 2.803 8.125 88.532 88.532 0 0 1 2.072 8.625c.569 0 .853.583.853 1.75-.325 12.083-1.32 23.146-2.986 33.188-1.666 10.041-4.032 18.895-7.099 26.562-3.067 7.667-6.886 14.125-11.456 19.375-4.571 5.25-9.943 9.125-16.118 11.625-.082 0-.132.021-.153.063-.02.041-.05.062-.091.062Zm40.584-91.625c-.284 0-.528-.375-.731-1.125a121.998 121.998 0 0 0-2.041-8.75c-.833-3.083-1.737-5.875-2.712-8.375a2.525 2.525 0 0 1-.244-1.125c0-.5.183-.875.549-1.125l3.168-2.375c.082-.083.224-.125.427-.125.244 0 .487.25.731.75.935 2.25 1.879 4.938 2.834 8.063a99.14 99.14 0 0 1 2.346 9.187c.081.5.122.792.122.875 0 .667-.203 1.125-.61 1.375l-3.473 2.625c-.081.083-.203.125-.366.125ZM545.734 281.75c-.284 0-.548-.25-.792-.75l-4.936-11.875a2.538 2.538 0 0 1-.243-1.125c0-.5.203-.875.609-1.125 3.25-1.667 6.043-3.792 8.379-6.375 2.336-2.583 4.276-5.833 5.819-9.75 1.544-3.917 2.722-8.625 3.535-14.125.812-5.5 1.34-11.917 1.584-19.25h-15.295V241c0 1.167-.285 1.75-.853 1.75h-6.338c-.569 0-.853-.583-.853-1.75v-23.625h-10.908c-.569 0-.853-.583-.853-1.75v-12.5c0-1.167.284-1.75.853-1.75h10.908V180.25c0-1.167.284-1.75.853-1.75h6.338c.568 0 .853.583.853 1.75v21.125h15.478v-21.25c0-1.167.284-1.75.853-1.75h6.398c.569 0 .854.583.854 1.75v21.25h10.968c.569 0 .853.583.853 1.75v12.625c0 1.167-.284 1.75-.853 1.75h-11.09c-.163 8.333-.681 15.875-1.554 22.625-.874 6.75-2.174 12.771-3.9 18.063-1.727 5.291-3.921 9.875-6.581 13.75-2.661 3.875-5.901 7.104-9.72 9.687l-.366.125ZM590.158 238c-.488 0-.731-.5-.731-1.5v-14.25c0-1 .243-1.5.731-1.5h46.434c.488 0 .731.5.731 1.5v14.375c0 1-.243 1.5-.731 1.5L590.158 238ZM676.202 279.125c-2.763 0-5.485-.25-8.166-.75-2.559-.5-4.662-1.521-6.307-3.062-1.645-1.542-2.956-3.5-3.931-5.875-.975-2.375-1.645-5.125-2.011-8.25-.365-3.125-.548-6.563-.548-10.313 0-2.917.01-6.542.031-10.875a36941.093 36941.093 0 0 0 .121-29.437c.021-5.292.031-10.438.031-15.438V184.75c0-1.167.284-1.75.853-1.75h6.886c.569 0 .853.583.853 1.75-.081 5.417-.132 10.958-.152 16.625-.021 5.667-.051 11.208-.092 16.625a130.933 130.933 0 0 0 6.825-4.375 118.96 118.96 0 0 0 6.856-5.062 154.904 154.904 0 0 0 6.611-5.563 91.3 91.3 0 0 0 6.033-5.875c.244-.167.407-.25.488-.25.284 0 .508.375.67 1.125l3.047 13.75c.041.167.061.417.061.75 0 .667-.244 1.25-.731 1.75a144.372 144.372 0 0 1-7.374 6.188c-2.6 2.041-5.21 3.979-7.83 5.812a125.69 125.69 0 0 1-7.709 5 169.199 169.199 0 0 1-7.069 4v13.875c0 4.333.468 7.521 1.402 9.563.934 2.041 2.6 3.229 4.997 3.562.65.167 1.32.25 2.011.25h2.194c1.584 0 3.26-.083 5.027-.25a51.765 51.765 0 0 0 5.423-.812 89.035 89.035 0 0 0 5.546-1.313 40.402 40.402 0 0 0 5.393-1.875h.243c.488 0 .711.542.671 1.625l-.122 14.25c0 1.083-.264 1.708-.792 1.875a90.714 90.714 0 0 1-9.598 2.25c-3.27.583-6.551.875-9.841.875Zm16.209-82.25c-.284 0-.528-.375-.731-1.125-.569-2.75-1.25-5.687-2.042-8.812-.792-3.125-1.716-6.021-2.772-8.688-.163-.5-.244-.875-.244-1.125 0-.583.183-1 .548-1.25l3.169-2.5a.74.74 0 0 1 .427-.125c.325 0 .568.25.731.75 1.137 2.5 2.183 5.292 3.138 8.375a86.01 86.01 0 0 1 2.285 9c.041.167.061.417.061.75a2.2 2.2 0 0 1-.548 1.5l-3.596 3c-.243.167-.385.25-.426.25Zm7.617-6.375c-.325 0-.548-.375-.67-1.125-.569-2.667-1.31-5.521-2.224-8.562-.914-3.042-1.879-5.771-2.895-8.188a2.539 2.539 0 0 1-.244-1.125c0-.583.183-1 .549-1.25l3.108-2.5c.243-.167.385-.25.426-.25.244 0 .488.25.731.75.935 2.167 1.91 4.792 2.925 7.875a109.237 109.237 0 0 1 2.56 9c.081.25.122.542.122.875 0 .583-.183 1.083-.549 1.5l-3.412 2.75c-.244.167-.386.25-.427.25ZM713.069 279.875c-.285 0-.528-.333-.732-1l-4.021-12.625c-.122-.417-.183-.75-.183-1 0-.667.203-1.125.609-1.375 4.103-2.583 7.922-6.229 11.456-10.937 3.535-4.709 6.683-9.917 9.446-15.625a118.787 118.787 0 0 0 6.916-17.875c1.849-6.209 3.118-12.063 3.809-17.563-4.347 0-8.724.063-13.132.188-4.408.125-8.785.187-13.132.187-.569 0-.853-.583-.853-1.75v-13c0-1.167.284-1.75.853-1.75h36.379c.61 0 .874.625.793 1.875-.65 8.333-1.808 16.438-3.474 24.313-1.666 7.875-3.737 15.395-6.216 22.562a194.322 194.322 0 0 1 9.629 15.5 146.165 146.165 0 0 1 7.739 16.125c.162.5.243.875.243 1.125 0 .417-.121.833-.365 1.25l-5.85 10.875c-.244.333-.427.5-.549.5-.243 0-.447-.292-.609-.875-1.95-5.333-4.205-10.792-6.764-16.375s-5.363-10.75-8.409-15.5c-3.291 7.333-6.897 13.813-10.817 19.438-3.92 5.625-8.033 10.02-12.34 13.187l-.426.125Z" style="fill-rule:nonzero" transform="matrix(2.05128 0 0 1 -331.392 -156.938)"/></svg>