<svg viewBox="0 0 500 90" xmlns="http://www.w3.org/2000/svg" xml:space="preserve" style="fill-rule:evenodd;clip-rule:evenodd;stroke-linejoin:round;stroke-miterlimit:2"><path d="M462.795 402.8c0-4.34.07-5.46.28-7.56-1.33.21-2.8.28-5.32.28h-3.85c-2.8 0-3.57-.07-5.6-.35v7.56c2.31-.35 2.8-.35 4.76-.35h2.59v15.96c-1.96 1.96-6.44 5.18-8.54 6.09l3.36 7.77c1.12-.98 1.33-1.12 2.1-1.75 2.24-1.89 2.24-1.89 2.73-2.31 2.1-1.89 2.87-2.59 4.27-4.13 5.18 6.44 10.29 7.84 28.42 7.84 4.13 0 17.5-.28 24.15-.56.07-1.54.07-1.54.84-4.48.63-2.45.63-2.45 1.26-3.85-9.24 1.05-17.64 1.47-28.07 1.47-15.96 0-19.88-1.26-23.38-7.35v-5.46c1.68 1.96 2.17 2.66 4.13 6.02 2.45-4.41 3.43-7 4.62-11.48v7.91c0 2.45-.07 4.2-.21 5.88 1.54-.14 3.71-.21 5.95-.21h4.2c2.03 0 3.85.07 5.39.21-.14-1.33-.14-1.68-.14-5.32v-12.67c.07-4.41.07-4.41.14-5.46-1.33.07-2.66.14-5.74.14h-7.91c.21-1.68.28-2.66.49-5.18h7.84c2.73 0 3.85.07 5.39.21-.07-1.05-.14-2.45-.14-4.97v-11.48c0-2.59.07-3.92.21-5.04-1.47.14-2.87.21-6.02.21h-7.21c-3.15 0-5.11-.07-6.44-.21.21 1.82.28 3.64.28 8.89 0 10.08-.63 18.62-1.68 22.89-.77 3.15-1.54 5.18-3.15 8.33v-7.49Zm11.13-17.71.14-8.19h6.58v8.19h-6.72Zm2.94 17.85h4.41v10.43h-4.41v-10.43Zm19.18-5.25v5.67h-2.38c-2.38 0-3.29-.07-5.04-.28v7.14c2.1-.14 3.08-.21 4.9-.21h2.52v6.79c0 1.82-.07 3.22-.28 4.69h7.63c-.21-1.4-.28-2.45-.28-4.69v-6.79h3.22c2.52 0 3.15 0 4.97.21v-7.14c-1.4.21-2.66.28-4.83.28h-3.36v-5.67h4.13c2.31 0 3.29.07 5.18.28v-7c-1.47.21-2.66.28-4.9.28h-1.54c1.12-2.66 2.31-5.81 3.22-8.68l-5.81-1.75h3.57c1.96 0 3.22.07 4.83.28v-6.93c-1.54.21-2.73.28-4.83.28h-3.85v-1.75c0-1.82.07-2.8.28-3.99h-7.7c.28 1.33.35 2.38.35 3.99v1.75h-2.52c-2.45 0-3.36-.07-5.04-.28v6.86c1.89-.21 2.17-.21 4.55-.21h2.17l-4.97 1.89c1.19 2.59 1.47 3.64 2.45 8.54-2.52 0-3.15-.07-4.48-.28v7c1.89-.21 3.01-.28 4.9-.28h2.94Zm-2.94-6.44 5.18-1.89c-.98-4.48-1.19-5.32-2.45-8.54h7.42c-.63 3.57-1.19 5.6-3.15 10.43h-7Zm-27.58-9.24c-3.5-4.9-6.58-8.4-11.34-12.6l-5.6 5.11c5.04 4.69 7.21 7.21 11.13 13.02l5.81-5.53ZM573.535 400.56h1.82c2.73 0 4.55.07 5.95.28v-7.21c-1.4.28-3.08.42-6.02.42h-1.75v-7.21h1.75c3.15 0 5.46.07 7.14.28v-7.21c-1.89.28-3.78.42-7.14.42h-1.96c1.68-3.15 2.45-4.97 4.41-10.15l-6.93-1.61c-.98 4.34-2.1 7.35-4.41 11.76h-5.6c1.12-2.52 2.03-4.83 2.59-6.58.91-2.66.98-2.8 1.4-3.85l-7.28-1.82c-1.12 6.44-4.27 13.79-7.84 18.48.07-.56.07-.7.14-1.47-1.26.14-2.03.14-3.99.14h-21c-2.73 0-3.29 0-4.48-.14.14 1.33.21 2.31.21 3.64v8.4c0 1.4-.07 2.31-.21 3.64 1.33-.14 1.89-.14 4.48-.14h7.28c-.07 1.82-.07 1.82-.14 3.15h-6.72c-2.45 0-3.85-.07-5.32-.28v6.02c1.47-.21 2.94-.28 5.32-.28h6.3c-.14 1.4-.28 2.31-.56 3.57h-7c-2.52 0-3.92-.07-5.39-.28v6.3c1.54-.21 3.01-.28 5.39-.28h5.18c-.98 1.89-1.96 3.08-3.64 4.55-2.03 1.75-3.5 2.59-7.42 4.06 1.61 1.75 3.15 3.99 4.13 6.16 6.58-3.15 10.01-6.23 12.74-11.48 3.43 4.2 6.86 6.93 11.9 9.59.84-2.31 1.68-3.78 3.43-6.3-4.9-2.17-7.14-3.64-10.22-6.58h5.67c2.45 0 3.57.07 4.97.28v-6.3c-1.4.21-2.31.28-4.9.28h-8.12c.21-1.54.21-1.89.42-3.57h6.58c2.38 0 3.08.07 4.83.28v-5.95c-1.4.14-2.31.21-4.83.21h-6.23c.07-1.75.07-2.8.07-3.15h7c3.29.07 3.29.07 4.27.14-.07-.84-.07-.84-.14-3.15v-6.44c.77 1.54 1.12 2.31 1.75 4.2.91-1.12 1.05-1.26 1.82-2.17v32.97c0 3.71-.07 5.18-.35 7.07h7.42v-3.36h15.89c3.29 0 5.11.07 7.07.28v-7.49c-1.75.35-3.08.42-6.93.42h-2.8v-8.4h1.61c2.8 0 4.55.07 6.02.28v-7.28c-1.4.28-3.08.42-5.95.42h-1.68v-7.56Zm-6.86 0v7.56h-6.37v-7.56h6.37Zm0-6.51h-6.37v-7.21h6.37v7.21Zm-6.37 20.65h6.37v8.4h-6.37v-8.4Zm-28.14-24.29v4.97h-5.53v-4.97h5.53Zm6.51 0h5.32v4.97h-5.32v-4.97Zm-12.95-16.8h-1.12c-2.87 0-4.48-.07-5.95-.35v6.93c1.54-.28 3.01-.35 5.88-.35h1.19c0 2.17-.07 2.66-.14 3.99h7c-.07-1.19-.07-1.54-.14-3.99h5.74c0 2.59 0 3.01-.07 3.99h7c-.14-1.05-.14-1.89-.14-3.99 2.73 0 4.83.07 6.23.28v-6.86c-1.82.28-3.15.35-6.23.35v-.84c0-1.96.07-2.94.21-3.99h-7.21c.14 1.12.21 2.1.21 4.06v.77h-5.74v-.77c0-2.03.07-3.08.28-4.06h-7.28c.21 1.26.28 2.45.28 4.13v.7ZM638.495 397.27v27.65c0 3.43-.14 5.39-.42 7.63h8.26c-.35-2.17-.42-3.92-.42-7.56v-27.72h1.05c2.66 0 4.27.07 6.16.35v-8.12c-2.03.35-3.5.42-6.79.42h-15.89v-8.75c7.35-1.05 11.9-2.03 19.11-4.27 1.54-.49 1.96-.63 3.22-.91l-3.99-7.14c-5.6 3.15-17.5 5.81-26.11 5.88.21 2.31.28 4.48.28 11.06 0 12.74-.7 20.58-2.24 25.9-1.75 6.02-4.55 10.43-9.94 15.47 2.45 1.75 3.92 3.22 5.81 5.81 2.38-2.59 3.43-3.78 4.48-5.25 2.66-3.36 4.62-7.14 6.09-11.34 1.75-5.04 2.66-10.57 3.08-19.11h8.26Zm-48.51-18.06c1.96-.28 3.92-.35 7.14-.35h15.89c3.64 0 5.46.07 7.28.35v-7.84c-1.82.28-3.5.35-7.63.35h-15.12c-3.64 0-5.53-.07-7.56-.35v7.84Zm28.28 11.2c0-2.73.07-4.83.21-6.3-2.17.14-3.85.21-7.07.21h-11.34c-3.36 0-5.11-.07-7.42-.21.28 2.59.35 5.04.35 9.73 0 18.9-1.19 26.04-5.53 33.46 2.59 1.61 4.13 2.94 6.23 5.53 4.13-7.21 5.67-13.23 6.23-24.92h11.62c3.85.07 6.16.14 6.86.14-.14-1.75-.14-2.52-.14-5.6v-12.04Zm-18.2 10.85c.07-2.03.07-2.66.07-5.32v-5.04h10.92v10.36h-10.99Z" style="fill-rule:nonzero" transform="translate(-571.404 -469.327) scale(1.28357)"/><path d="M347.199 81.357h-11.633c-.39-2.232-1.267-5.97-2.144-8.95l-9.724-33.812c-.998-3.535-1.813-6.98-2.63-11.603a.32.32 0 0 0-.63-.005c-.998 5.17-1.905 8.707-2.721 11.609l-9.635 33.813c0 .002 0 .003-.002.005-1.049 3.937-1.762 6.783-2.062 8.943h-11.544c-.408-2.031-.483-2.3-2.409-9.129l-14.452-52.174-.002-.005c-1.466-5-2.362-7.802-3.458-10.405h13.757c.194 2.986.653 5.68 1.626 9.573l8.452 34.628c.636 2.814 1.634 7.44 2.178 10.616a.32.32 0 0 0 .63.012c1.18-5.624 1.815-8.164 2.54-10.704l10.09-35.086c1.055-3.693 1.686-6.625 1.977-9.04h10.613c.306 2.21 1.1 5.62 2.064 8.86l10.18 34.992c.634 2.358 1.088 4.175 2.54 10.98a.322.322 0 0 0 .314.253.32.32 0 0 0 .313-.254c.455-2.094.455-2.095 1.002-5.282a310.72 310.72 0 0 1 1.18-5.802l8.451-34.262c.878-3.34 1.42-6.934 1.542-9.484h13.758c-1.177 2.9-1.987 5.374-3.376 10.41L349.44 72.138c-.001.003-.001.006-.003.008-.636 2.548-1.09 4.185-1.274 5.006-.693 2.424-.727 2.55-.964 4.205ZM427.51 70.584v11.362c-3.142-.42-6.047-.59-11.406-.59h-28.36c-5.264 0-7.738.085-11.17.254.504-3.48.674-6.465.674-11.658V20.776c0-4.6-.171-7.315-.682-11.387 3.431.17 5.823.255 11.178.255h27.451c4.428 0 7.394-.172 11.405-.6V20.32c-3.311-.422-6.212-.592-11.405-.592h-26.178a.321.321 0 0 0-.321.32v18.726c0 .176.144.32.32.32h22.089c4.6 0 7.655-.17 11.496-.598v11.179c-3.541-.501-6.025-.587-11.496-.587h-22.18a.321.321 0 0 0-.32.32v21.453c0 .176.144.32.32.32h27.27c4.95 0 7.586-.171 11.314-.597ZM474.279 81.357h-22.361c-5.09 0-7.726.084-11.255.253.587-3.628.759-6.29.759-11.931V20.322c0-4.054-.256-7.257-.685-10.842 3.548.164 5.11.164 11.09.164h21.452c8.336 0 14.486 2.236 18.066 6.464 2.375 2.803 3.61 6.48 3.61 10.94 0 5.44-1.597 9.459-4.986 12.58l-.005.004c-1.964 1.875-3.573 2.673-7.054 3.744a.32.32 0 0 0 .027.62c4.558.984 6.618 1.87 9.03 4.103 3.663 3.395 5.533 7.865 5.533 13.672 0 6.255-2.067 11.152-5.999 14.48-3.951 3.345-9.769 5.106-17.222 5.106Zm-21.18-32.633a.321.321 0 0 0-.32.321v22.361c0 .177.144.32.32.32h19.543c4.14 0 7.368-1.035 9.565-3.001 2.21-1.976 3.39-4.893 3.39-8.681 0-3.748-.95-6.272-3.013-8.146l-.004-.004c-2.322-2.042-5.847-3.17-10.12-3.17H453.1Zm-.32-9.768c0 .176.144.32.32.32h18.907c3.548 0 6.368-.968 8.306-2.719 1.947-1.76 3.014-4.316 3.014-7.51 0-3.012-.959-5.548-2.465-6.96l-.004-.003c-2.05-1.864-5.214-2.901-8.942-2.901H453.1a.321.321 0 0 0-.32.32v19.453Z"/></svg>
